<svg xmlns="http://www.w3.org/2000/svg" width="1000" height="401" viewBox="0 0 1000 401" role="img" aria-labelledby="title desc"><title id="title">Selected projects: MERN Admin Panel and Chat App</title><desc id="desc">Project illustrations are decorative, not application screenshots. Repository links follow below.</desc><g transform="translate(1 1)"><rect x="0" y="0" width="486" height="391" rx="10" fill="#14151d" stroke="#2a2938" /><g transform="translate(24 22) scale(1.0209 0.9800)"><defs><linearGradient id="adminLight" x1="0" y1="0" x2="1" y2="1"><stop stop-color="#312340"/><stop offset="1" stop-color="#11141b"/></linearGradient><linearGradient id="adminGlass"><stop stop-color="#7652b6" stop-opacity=".9"/><stop offset="1" stop-color="#352447" stop-opacity=".4"/></linearGradient></defs><rect x="0" y="0" width="430" height="213" rx="9" fill="url(#adminLight)" stroke="#2a2938" /><rect x="43" y="27" width="336" height="163" rx="9" fill="#191721" stroke="#493763" /><rect x="43" y="27" width="64" height="163" rx="9" fill="#211c2e" stroke="none" /><text x="59" y="53" font-family="Arial, Helvetica, sans-serif" font-size="16" font-weight="700" fill="#b28aff" text-anchor="start" >A</text><rect x="58" y="72" width="33" height="5" rx="2" fill="#514265" stroke="none" /><rect x="58" y="96" width="33" height="5" rx="2" fill="#514265" stroke="none" /><rect x="58" y="120" width="33" height="5" rx="2" fill="#514265" stroke="none" /><rect x="58" y="144" width="33" height="5" rx="2" fill="#514265" stroke="none" /><rect x="125" y="51" width="64" height="37" rx="5" fill="#302440" stroke="#594075" /><path d="M136 63L155 63" fill="none" stroke="#b28aff" stroke-width="3"/><path d="M136 74L169 74" fill="none" stroke="#68517f" stroke-width="3"/><rect x="203" y="51" width="64" height="37" rx="5" fill="#302440" stroke="#594075" /><path d="M214 63L233 63" fill="none" stroke="#b28aff" stroke-width="3"/><path d="M214 74L247 74" fill="none" stroke="#68517f" stroke-width="3"/><rect x="281" y="51" width="64" height="37" rx="5" fill="#302440" stroke="#594075" /><path d="M292 63L311 63" fill="none" stroke="#b28aff" stroke-width="3"/><path d="M292 74L325 74" fill="none" stroke="#68517f" stroke-width="3"/><path d="M133 157L163 146 195 151 225 118 253 128 283 112 330 107" fill="none" stroke="#b28aff" stroke-width="3"/><path d="M126 171L356 171" fill="none" stroke="#403448" stroke-width="1"/><circle cx="283" cy="112" r="5" fill="#dec8ff"/></g><text x="24" y="271" font-family="Arial, Helvetica, sans-serif" font-size="30" font-weight="700" fill="#f5f3ff" text-anchor="start" >MERN Admin Panel</text><text x="24" y="305" font-family="Arial, Helvetica, sans-serif" font-size="18" font-weight="400" fill="#b0adbf" text-anchor="start" >Authentication &amp; service management</text><rect x="24" y="330" width="151" height="30" rx="15" fill="#261d35" stroke="#443255" /><text x="39" y="350" font-family="Arial, Helvetica, sans-serif" font-size="13" font-weight="500" fill="#b28aff" text-anchor="start" >Source available</text><text x="462" y="350" font-family="Arial, Helvetica, sans-serif" font-size="13" font-weight="400" fill="#b0adbf" text-anchor="end" >MERN stack</text></g><g transform="translate(512 1)"><rect x="0" y="0" width="486" height="391" rx="10" fill="#14151d" stroke="#2a2938" /><g transform="translate(24 22) scale(1.0209 0.9800)"><defs><linearGradient id="chatLight" x1="0" y1="0" x2="1" y2="1"><stop stop-color="#312340"/><stop offset="1" stop-color="#11141b"/></linearGradient><linearGradient id="chatGlass"><stop stop-color="#7652b6" stop-opacity=".9"/><stop offset="1" stop-color="#352447" stop-opacity=".4"/></linearGradient></defs><rect x="0" y="0" width="430" height="213" rx="9" fill="url(#chatLight)" stroke="#2a2938" /><rect x="75" y="59" width="220" height="125" rx="12" fill="#221b31" stroke="#423352" /><rect x="119" y="27" width="237" height="135" rx="12" fill="url(#chatGlass)" stroke="#7356a0" /><path d="M297 158L327 182 323 156Z" fill="#443056" stroke="#7356a0"/><circle cx="150" cy="57" r="6" fill="#e2cfff"/><path d="M170 57L287 57" fill="none" stroke="#bba3d6" stroke-width="4"/><circle cx="150" cy="89" r="6" fill="#e2cfff"/><path d="M170 89L257 89" fill="none" stroke="#bba3d6" stroke-width="4"/><circle cx="150" cy="121" r="6" fill="#e2cfff"/><path d="M170 121L287 121" fill="none" stroke="#bba3d6" stroke-width="4"/><rect x="48" y="140" width="101" height="40" rx="10" fill="#322544" stroke="#69488d" /><circle cx="77" cy="160" r="4" fill="#c6a5f3"/><circle cx="98" cy="160" r="4" fill="#c6a5f3"/><circle cx="119" cy="160" r="4" fill="#c6a5f3"/></g><text x="24" y="271" font-family="Arial, Helvetica, sans-serif" font-size="30" font-weight="700" fill="#f5f3ff" text-anchor="start" >Chat App</text><text x="24" y="305" font-family="Arial, Helvetica, sans-serif" font-size="18" font-weight="400" fill="#b0adbf" text-anchor="start" >A web chat project</text><rect x="24" y="330" width="151" height="30" rx="15" fill="#261d35" stroke="#443255" /><text x="39" y="350" font-family="Arial, Helvetica, sans-serif" font-size="13" font-weight="500" fill="#b28aff" text-anchor="start" >Source available</text><text x="462" y="350" font-family="Arial, Helvetica, sans-serif" font-size="13" font-weight="400" fill="#b0adbf" text-anchor="end" >JavaScript</text></g></svg>
