<svg xmlns="http://www.w3.org/2000/svg" width="600" height="361" viewBox="0 0 600 361" role="img" aria-labelledby="title desc"><title id="title">Repository language composition</title><desc id="desc">JavaScript: 63.4 percent of bytes; TypeScript: 20.4 percent of bytes; CSS: 10.0 percent of bytes; HTML: 4.1 percent of bytes; SCSS: 2.1 percent of bytes</desc><rect x="1" y="1" width="598" height="359" rx="14" fill="#14151d" stroke="#2a2938" /><text x="30" y="42" font-family="Arial, Helvetica, sans-serif" font-size="25" font-weight="700" fill="#f5f3ff" text-anchor="start" >Repository languages</text><text x="30" y="70" font-family="Arial, Helvetica, sans-serif" font-size="14" font-weight="400" fill="#b0adbf" text-anchor="start" >Source bytes · public originals · profile repo excluded</text><path d="M30 88L570 88" fill="none" stroke="#2a2938" stroke-width="1"/><text x="30" y="124" font-family="Arial, Helvetica, sans-serif" font-size="17" font-weight="600" fill="#f5f3ff" text-anchor="start" >JavaScript</text><text x="568" y="124" font-family="Arial, Helvetica, sans-serif" font-size="15" font-weight="500" fill="#b28aff" text-anchor="end" >63.4%</text><rect x="190" y="110" width="280" height="13" rx="5" fill="#242132" stroke="none" /><rect x="190" y="110" width="177.54661277460906" height="13" rx="5" fill="#b28aff" stroke="none" /><text x="30" y="166" font-family="Arial, Helvetica, sans-serif" font-size="17" font-weight="600" fill="#f5f3ff" text-anchor="start" >TypeScript</text><text x="568" y="166" font-family="Arial, Helvetica, sans-serif" font-size="15" font-weight="500" fill="#b28aff" text-anchor="end" >20.4%</text><rect x="190" y="152" width="280" height="13" rx="5" fill="#242132" stroke="none" /><rect x="190" y="152" width="57.083498195143626" height="13" rx="5" fill="#b28aff" stroke="none" /><text x="30" y="208" font-family="Arial, Helvetica, sans-serif" font-size="17" font-weight="600" fill="#f5f3ff" text-anchor="start" >CSS</text><text x="568" y="208" font-family="Arial, Helvetica, sans-serif" font-size="15" font-weight="500" fill="#b28aff" text-anchor="end" >10.0%</text><rect x="190" y="194" width="280" height="13" rx="5" fill="#242132" stroke="none" /><rect x="190" y="194" width="28.071755976113806" height="13" rx="5" fill="#b28aff" stroke="none" /><text x="30" y="250" font-family="Arial, Helvetica, sans-serif" font-size="17" font-weight="600" fill="#f5f3ff" text-anchor="start" >HTML</text><text x="568" y="250" font-family="Arial, Helvetica, sans-serif" font-size="15" font-weight="500" fill="#b28aff" text-anchor="end" >4.1%</text><rect x="190" y="236" width="280" height="13" rx="5" fill="#242132" stroke="none" /><rect x="190" y="236" width="11.462846742432083" height="13" rx="5" fill="#b28aff" stroke="none" /><text x="30" y="292" font-family="Arial, Helvetica, sans-serif" font-size="17" font-weight="600" fill="#f5f3ff" text-anchor="start" >SCSS</text><text x="568" y="292" font-family="Arial, Helvetica, sans-serif" font-size="15" font-weight="500" fill="#b28aff" text-anchor="end" >2.1%</text><rect x="190" y="278" width="280" height="13" rx="5" fill="#242132" stroke="none" /><rect x="190" y="278" width="5.835286311701434" height="13" rx="5" fill="#b28aff" stroke="none" /><text x="30" y="339" font-family="Arial, Helvetica, sans-serif" font-size="13" font-weight="400" fill="#b0adbf" text-anchor="start" >Repository composition, not a proficiency score.</text></svg>
